<svg aria-roledescription="flowchart-v2" role="graphics-document document" viewBox="-8 -8 1319.046875 506.73590087890625" style="max-width: 1319.05px; background-color: white;" xmlns:xlink="http://www.w3.org/1999/xlink" xmlns="http://www.w3.org/2000/svg" width="100%" id="my-svg"><style>#my-svg{font-size:13px;fill:#e2e8f0;}#my-svg .error-icon{fill:#1e293b;}#my-svg .error-text{fill:#e1d6c4;stroke:#e1d6c4;}#my-svg .edge-thickness-normal{stroke-width:2px;}#my-svg .edge-thickness-thick{stroke-width:3.5px;}#my-svg .edge-pattern-solid{stroke-dasharray:0;}#my-svg .edge-pattern-dashed{stroke-dasharray:3;}#my-svg .edge-pattern-dotted{stroke-dasharray:2;}#my-svg .marker{fill:#38bdf8;stroke:#38bdf8;}#my-svg .marker.cross{stroke:#38bdf8;}#my-svg svg{font-size:13px;}#my-svg .label{color:#e2e8f0;}#my-svg .cluster-label text{fill:#1e1b4b;}#my-svg .cluster-label span,#my-svg p{color:#1e1b4b;}#my-svg .label text,#my-svg span,#my-svg p{fill:#e2e8f0;color:#e2e8f0;}#my-svg .node rect,#my-svg .node circle,#my-svg .node ellipse,#my-svg .node polygon,#my-svg .node path{fill:#0f172a;stroke:#0063e5;stroke-width:1px;}#my-svg .flowchart-label text{text-anchor:middle;}#my-svg .node .katex path{fill:#000;stroke:#000;stroke-width:1px;}#my-svg .node .label{text-align:center;}#my-svg .node.clickable{cursor:pointer;}#my-svg .arrowheadPath{fill:#0b0b0b;}#my-svg .edgePath .path{stroke:#38bdf8;stroke-width:2.0px;}#my-svg .flowchart-link{stroke:#38bdf8;fill:none;}#my-svg .edgeLabel{background-color:#e8f0ff;text-align:center;}#my-svg .edgeLabel rect{opacity:0.5;background-color:#e8f0ff;fill:#e8f0ff;}#my-svg .labelBkg{background-color:rgba(232, 240, 255, 0.5);}#my-svg .cluster rect{fill:#f0f7ff;stroke:#bfdbfe;stroke-width:1px;}#my-svg .cluster text{fill:#1e1b4b;}#my-svg .cluster span,#my-svg p{color:#1e1b4b;}#my-svg div.mermaidTooltip{position:absolute;text-align:center;max-width:200px;padding:2px;font-size:12px;background:#1e293b;border:1px solid hsl(217.2413793103, 0%, 7.4509803922%);border-radius:2px;pointer-events:none;z-index:100;}#my-svg .flowchartTitleText{text-anchor:middle;font-size:18px;fill:#e2e8f0;}#my-svg :root{--mermaid-font-family:"trebuchet ms",verdana,arial,sans-serif;}</style><g><marker orient="auto" markerHeight="12" markerWidth="12" markerUnits="userSpaceOnUse" refY="5" refX="6" viewBox="0 0 10 10" class="marker flowchart" id="my-svg_flowchart-pointEnd"><path style="stroke-width: 1; stroke-dasharray: 1, 0;" class="arrowMarkerPath" d="M 0 0 L 10 5 L 0 10 z"/></marker><marker orient="auto" markerHeight="12" markerWidth="12" markerUnits="userSpaceOnUse" refY="5" refX="4.5" viewBox="0 0 10 10" class="marker flowchart" id="my-svg_flowchart-pointStart"><path style="stroke-width: 1; stroke-dasharray: 1, 0;" class="arrowMarkerPath" d="M 0 5 L 10 10 L 10 0 z"/></marker><marker orient="auto" markerHeight="11" markerWidth="11" markerUnits="userSpaceOnUse" refY="5" refX="11" viewBox="0 0 10 10" class="marker flowchart" id="my-svg_flowchart-circleEnd"><circle style="stroke-width: 1; stroke-dasharray: 1, 0;" class="arrowMarkerPath" r="5" cy="5" cx="5"/></marker><marker orient="auto" markerHeight="11" markerWidth="11" markerUnits="userSpaceOnUse" refY="5" refX="-1" viewBox="0 0 10 10" class="marker flowchart" id="my-svg_flowchart-circleStart"><circle style="stroke-width: 1; stroke-dasharray: 1, 0;" class="arrowMarkerPath" r="5" cy="5" cx="5"/></marker><marker orient="auto" markerHeight="11" markerWidth="11" markerUnits="userSpaceOnUse" refY="5.2" refX="12" viewBox="0 0 11 11" class="marker cross flowchart" id="my-svg_flowchart-crossEnd"><path style="stroke-width: 2; stroke-dasharray: 1, 0;" class="arrowMarkerPath" d="M 1,1 l 9,9 M 10,1 l -9,9"/></marker><marker orient="auto" markerHeight="11" markerWidth="11" markerUnits="userSpaceOnUse" refY="5.2" refX="-1" viewBox="0 0 11 11" class="marker cross flowchart" id="my-svg_flowchart-crossStart"><path style="stroke-width: 2; stroke-dasharray: 1, 0;" class="arrowMarkerPath" d="M 1,1 l 9,9 M 10,1 l -9,9"/></marker><g class="root"><g class="clusters"><g id="App" class="cluster default flowchart-label"><rect height="285" width="1303.046875" y="80" x="0" ry="0" rx="0" style=""/><g transform="translate(619.5859375, 80)" class="cluster-label"><foreignObject height="15" width="63.875"><div style="display: inline-block; white-space: nowrap;" xmlns="http://www.w3.org/1999/xhtml"><span class="nodeLabel">ES Modules</span></div></foreignObject></g></g></g><g class="edgePaths"><path marker-end="url(#my-svg_flowchart-pointEnd)" style="fill:none;" class="edge-thickness-normal edge-pattern-solid flowchart-link LS-User LE-HTML" id="L-User-HTML-0" d="M665.602,30L665.602,34.167C665.602,38.333,665.602,46.667,665.602,55C665.602,63.333,665.602,71.667,665.602,79.117C665.602,86.567,665.602,93.133,665.602,96.417L665.602,99.7"/><path marker-end="url(#my-svg_flowchart-pointEnd)" style="fill:none;" class="edge-thickness-normal edge-pattern-solid flowchart-link LS-HTML LE-app" id="L-HTML-app-0" d="M665.602,150L665.602,154.167C665.602,158.333,665.602,166.667,665.602,174.117C665.602,181.567,665.602,188.133,665.602,191.417L665.602,194.7"/><path marker-end="url(#my-svg_flowchart-pointEnd)" style="fill:none;" class="edge-thickness-normal edge-pattern-solid flowchart-link LS-app LE-state" id="L-app-state-0" d="M625.703,225.951L540.835,233.293C455.966,240.634,286.229,255.317,201.361,265.942C116.492,276.567,116.492,283.133,116.492,286.417L116.492,289.7"/><path marker-end="url(#my-svg_flowchart-pointEnd)" style="fill:none;" class="edge-thickness-normal edge-pattern-solid flowchart-link LS-app LE-parser" id="L-app-parser-0" d="M625.703,227.882L573.665,234.902C521.628,241.921,417.552,255.961,365.514,266.264C313.477,276.567,313.477,283.133,313.477,286.417L313.477,289.7"/><path marker-end="url(#my-svg_flowchart-pointEnd)" style="fill:none;" class="edge-thickness-normal edge-pattern-solid flowchart-link LS-app LE-render" id="L-app-render-0" d="M625.703,233.228L602.91,239.357C580.117,245.485,534.531,257.743,511.738,267.155C488.945,276.567,488.945,283.133,488.945,286.417L488.945,289.7"/><path marker-end="url(#my-svg_flowchart-pointEnd)" style="fill:none;" class="edge-thickness-normal edge-pattern-solid flowchart-link LS-app LE-audit" id="L-app-audit-0" d="M665.602,245L665.602,249.167C665.602,253.333,665.602,261.667,665.602,269.117C665.602,276.567,665.602,283.133,665.602,286.417L665.602,289.7"/><path marker-end="url(#my-svg_flowchart-pointEnd)" style="fill:none;" class="edge-thickness-normal edge-pattern-solid flowchart-link LS-app LE-exp" id="L-app-exp-0" d="M705.5,231.737L733.046,238.114C760.591,244.491,815.682,257.246,843.228,266.906C870.773,276.567,870.773,283.133,870.773,286.417L870.773,289.7"/><path marker-end="url(#my-svg_flowchart-pointEnd)" style="fill:none;" class="edge-thickness-normal edge-pattern-solid flowchart-link LS-app LE-events" id="L-app-events-0" d="M705.5,227.028L768.603,234.19C831.706,241.352,957.911,255.676,1021.014,266.121C1084.117,276.567,1084.117,283.133,1084.117,286.417L1084.117,289.7"/><path marker-end="url(#my-svg_flowchart-pointEnd)" style="fill:none;" class="edge-thickness-normal edge-pattern-solid flowchart-link LS-app LE-utils" id="L-app-utils-0" d="M705.5,225.808L794.335,233.173C883.169,240.539,1060.839,255.269,1149.673,265.918C1238.508,276.567,1238.508,283.133,1238.508,286.417L1238.508,289.7"/><path marker-end="url(#my-svg_flowchart-pointEnd)" marker-start="url(#my-svg_flowchart-pointStart)" style="fill:none;" class="edge-thickness-normal edge-pattern-solid flowchart-link LS-state LE-Storage" id="L-state-Storage-0" d="M116.492,345.3L116.492,348.583C116.492,351.867,116.492,358.433,116.492,367.133C116.492,375.833,116.492,386.667,116.492,396.617C116.492,406.567,116.492,415.633,116.492,420.167L116.492,424.7"/><path marker-end="url(#my-svg_flowchart-pointEnd)" style="fill:none;" class="edge-thickness-normal edge-pattern-solid flowchart-link LS-exp LE-PptxGenJS" id="L-exp-PptxGenJS-0" d="M782.281,331.313L746.313,336.928C710.345,342.542,638.409,353.771,602.441,364.802C566.473,375.833,566.473,386.667,566.473,399.178C566.473,411.689,566.473,425.879,566.473,432.973L566.473,440.068"/><path marker-end="url(#my-svg_flowchart-pointEnd)" style="fill:none;" class="edge-thickness-normal edge-pattern-solid flowchart-link LS-exp LE-Downloads" id="L-exp-Downloads-0" d="M959.266,337.891L978.873,342.409C998.48,346.927,1037.695,355.964,1057.303,365.899C1076.91,375.833,1076.91,386.667,1076.91,397.928C1076.91,409.189,1076.91,420.879,1076.91,426.723L1076.91,432.568"/></g><g class="edgeLabels"><g class="edgeLabel"><g transform="translate(0, 0)" class="label"><foreignObject height="0" width="0"><div style="display: inline-block; white-space: nowrap;" xmlns="http://www.w3.org/1999/xhtml"><span class="edgeLabel"></span></div></foreignObject></g></g><g class="edgeLabel"><g transform="translate(0, 0)" class="label"><foreignObject height="0" width="0"><div style="display: inline-block; white-space: nowrap;" xmlns="http://www.w3.org/1999/xhtml"><span class="edgeLabel"></span></div></foreignObject></g></g><g class="edgeLabel"><g transform="translate(0, 0)" class="label"><foreignObject height="0" width="0"><div style="display: inline-block; white-space: nowrap;" xmlns="http://www.w3.org/1999/xhtml"><span class="edgeLabel"></span></div></foreignObject></g></g><g class="edgeLabel"><g transform="translate(0, 0)" class="label"><foreignObject height="0" width="0"><div style="display: inline-block; white-space: nowrap;" xmlns="http://www.w3.org/1999/xhtml"><span class="edgeLabel"></span></div></foreignObject></g></g><g class="edgeLabel"><g transform="translate(0, 0)" class="label"><foreignObject height="0" width="0"><div style="display: inline-block; white-space: nowrap;" xmlns="http://www.w3.org/1999/xhtml"><span class="edgeLabel"></span></div></foreignObject></g></g><g class="edgeLabel"><g transform="translate(0, 0)" class="label"><foreignObject height="0" width="0"><div style="display: inline-block; white-space: nowrap;" xmlns="http://www.w3.org/1999/xhtml"><span class="edgeLabel"></span></div></foreignObject></g></g><g class="edgeLabel"><g transform="translate(0, 0)" class="label"><foreignObject height="0" width="0"><div style="display: inline-block; white-space: nowrap;" xmlns="http://www.w3.org/1999/xhtml"><span class="edgeLabel"></span></div></foreignObject></g></g><g class="edgeLabel"><g transform="translate(0, 0)" class="label"><foreignObject height="0" width="0"><div style="display: inline-block; white-space: nowrap;" xmlns="http://www.w3.org/1999/xhtml"><span class="edgeLabel"></span></div></foreignObject></g></g><g class="edgeLabel"><g transform="translate(0, 0)" class="label"><foreignObject height="0" width="0"><div style="display: inline-block; white-space: nowrap;" xmlns="http://www.w3.org/1999/xhtml"><span class="edgeLabel"></span></div></foreignObject></g></g><g transform="translate(116.4921875, 397.5)" class="edgeLabel"><g transform="translate(-52.125, -7.5)" class="label"><foreignObject height="15" width="104.25"><div style="display: inline-block; white-space: nowrap;" xmlns="http://www.w3.org/1999/xhtml"><span class="edgeLabel">presentation-sage</span></div></foreignObject></g></g><g transform="translate(566.47265625, 397.5)" class="edgeLabel"><g transform="translate(-47.921875, -7.5)" class="label"><foreignObject height="15" width="95.84375"><div style="display: inline-block; white-space: nowrap;" xmlns="http://www.w3.org/1999/xhtml"><span class="edgeLabel">PPTX generation</span></div></foreignObject></g></g><g class="edgeLabel"><g transform="translate(0, 0)" class="label"><foreignObject height="0" width="0"><div style="display: inline-block; white-space: nowrap;" xmlns="http://www.w3.org/1999/xhtml"><span class="edgeLabel"></span></div></foreignObject></g></g></g><g class="nodes"><g transform="translate(665.6015625, 222.5)" data-id="app" data-node="true" id="flowchart-app-3" class="node default default flowchart-label"><rect height="45" width="79.796875" y="-22.5" x="-39.8984375" ry="0" rx="0" style="" class="basic label-container"/><g transform="translate(-32.3984375, -15)" style="" class="label"><rect/><foreignObject height="30" width="64.796875"><div style="display: inline-block; white-space: nowrap;" xmlns="http://www.w3.org/1999/xhtml"><span class="nodeLabel">app.js<br />Entry point</span></div></foreignObject></g></g><g transform="translate(665.6015625, 127.5)" data-id="HTML" data-node="true" id="flowchart-HTML-1" class="node default default flowchart-label"><rect height="45" width="78.3125" y="-22.5" x="-39.15625" ry="0" rx="0" style="" class="basic label-container"/><g transform="translate(-31.65625, -15)" style="" class="label"><rect/><foreignObject height="30" width="63.3125"><div style="display: inline-block; white-space: nowrap;" xmlns="http://www.w3.org/1999/xhtml"><span class="nodeLabel">index.html<br />App shell</span></div></foreignObject></g></g><g transform="translate(116.4921875, 317.5)" data-id="state" data-node="true" id="flowchart-state-5" class="node default default flowchart-label"><rect height="45" width="162.984375" y="-22.5" x="-81.4921875" ry="0" rx="0" style="" class="basic label-container"/><g transform="translate(-73.9921875, -15)" style="" class="label"><rect/><foreignObject height="30" width="147.984375"><div style="display: inline-block; white-space: nowrap;" xmlns="http://www.w3.org/1999/xhtml"><span class="nodeLabel">state.js<br />Slide state + localStorage</span></div></foreignObject></g></g><g transform="translate(313.4765625, 317.5)" data-id="parser" data-node="true" id="flowchart-parser-7" class="node default default flowchart-label"><rect height="45" width="130.984375" y="-22.5" x="-65.4921875" ry="0" rx="0" style="" class="basic label-container"/><g transform="translate(-57.9921875, -15)" style="" class="label"><rect/><foreignObject height="30" width="115.984375"><div style="display: inline-block; white-space: nowrap;" xmlns="http://www.w3.org/1999/xhtml"><span class="nodeLabel">parser.js<br />YAML to slide model</span></div></foreignObject></g></g><g transform="translate(488.9453125, 317.5)" data-id="render" data-node="true" id="flowchart-render-9" class="node default default flowchart-label"><rect height="45" width="119.953125" y="-22.5" x="-59.9765625" ry="0" rx="0" style="" class="basic label-container"/><g transform="translate(-52.4765625, -15)" style="" class="label"><rect/><foreignObject height="30" width="104.953125"><div style="display: inline-block; white-space: nowrap;" xmlns="http://www.w3.org/1999/xhtml"><span class="nodeLabel">render.js<br />Live slide preview</span></div></foreignObject></g></g><g transform="translate(665.6015625, 317.5)" data-id="audit" data-node="true" id="flowchart-audit-11" class="node default default flowchart-label"><rect height="45" width="133.359375" y="-22.5" x="-66.6796875" ry="0" rx="0" style="" class="basic label-container"/><g transform="translate(-59.1796875, -15)" style="" class="label"><rect/><foreignObject height="30" width="118.359375"><div style="display: inline-block; white-space: nowrap;" xmlns="http://www.w3.org/1999/xhtml"><span class="nodeLabel">audit.js<br />Flow coaching panel</span></div></foreignObject></g></g><g transform="translate(870.7734375, 317.5)" data-id="exp" data-node="true" id="flowchart-exp-13" class="node default default flowchart-label"><rect height="45" width="176.984375" y="-22.5" x="-88.4921875" ry="0" rx="0" style="" class="basic label-container"/><g transform="translate(-80.9921875, -15)" style="" class="label"><rect/><foreignObject height="30" width="161.984375"><div style="display: inline-block; white-space: nowrap;" xmlns="http://www.w3.org/1999/xhtml"><span class="nodeLabel">export.js<br />YAML / HTML / Marp / PPTX</span></div></foreignObject></g></g><g transform="translate(1084.1171875, 317.5)" data-id="events" data-node="true" id="flowchart-events-15" class="node default default flowchart-label"><rect height="45" width="149.703125" y="-22.5" x="-74.8515625" ry="0" rx="0" style="" class="basic label-container"/><g transform="translate(-67.3515625, -15)" style="" class="label"><rect/><foreignObject height="30" width="134.703125"><div style="display: inline-block; white-space: nowrap;" xmlns="http://www.w3.org/1999/xhtml"><span class="nodeLabel">events.js<br />Toolbar + editor events</span></div></foreignObject></g></g><g transform="translate(1238.5078125, 317.5)" data-id="utils" data-node="true" id="flowchart-utils-17" class="node default default flowchart-label"><rect height="45" width="59.078125" y="-22.5" x="-29.5390625" ry="0" rx="0" style="" class="basic label-container"/><g transform="translate(-22.0390625, -15)" style="" class="label"><rect/><foreignObject height="30" width="44.078125"><div style="display: inline-block; white-space: nowrap;" xmlns="http://www.w3.org/1999/xhtml"><span class="nodeLabel">utils.js<br />Helpers</span></div></foreignObject></g></g><g transform="translate(665.6015625, 15)" data-id="User" data-node="true" id="flowchart-User-0" class="node default default flowchart-label"><rect height="30" width="48.34375" y="-15" x="-24.171875" ry="15" rx="15" style=""/><g transform="translate(-12.921875, -7.5)" style="" class="label"><rect/><foreignObject height="15" width="25.84375"><div style="display: inline-block; white-space: nowrap;" xmlns="http://www.w3.org/1999/xhtml"><span class="nodeLabel">User</span></div></foreignObject></g></g><g transform="translate(116.4921875, 460.3679447174072)" data-id="Storage" data-node="true" id="flowchart-Storage-19" class="node default default flowchart-label"><path transform="translate(-43.3984375,-30.367945407598672)" d="M 0,10.245296938399115 a 43.3984375,10.245296938399115 0,0,0 86.796875 0 a 43.3984375,10.245296938399115 0,0,0 -86.796875 0 l 0,40.245296938399115 a 43.3984375,10.245296938399115 0,0,0 86.796875 0 l 0,-40.245296938399115" style=""/><g transform="translate(-35.8984375, -7.5)" style="" class="label"><rect/><foreignObject height="15" width="71.796875"><div style="display: inline-block; white-space: nowrap;" xmlns="http://www.w3.org/1999/xhtml"><span class="nodeLabel">localStorage</span></div></foreignObject></g></g><g transform="translate(566.47265625, 460.3679447174072)" data-id="PptxGenJS" data-node="true" id="flowchart-PptxGenJS-21" class="node default default flowchart-label"><rect height="30" width="104.5625" y="-15" x="-52.28125" ry="0" rx="0" style="" class="basic label-container"/><g transform="translate(-44.78125, -7.5)" style="" class="label"><rect/><foreignObject height="15" width="89.5625"><div style="display: inline-block; white-space: nowrap;" xmlns="http://www.w3.org/1999/xhtml"><span class="nodeLabel">PptxGenJS CDN</span></div></foreignObject></g></g><g transform="translate(1076.91015625, 460.3679447174072)" data-id="Downloads" data-node="true" id="flowchart-Downloads-23" class="node default default flowchart-label"><rect height="45" width="176.984375" y="-22.5" x="-88.4921875" ry="0" rx="0" style="" class="basic label-container"/><g transform="translate(-80.9921875, -15)" style="" class="label"><rect/><foreignObject height="30" width="161.984375"><div style="display: inline-block; white-space: nowrap;" xmlns="http://www.w3.org/1999/xhtml"><span class="nodeLabel">File downloads<br />.pptx / .html / .md / .yaml</span></div></foreignObject></g></g></g></g></g></svg>